<?xml version="1.0" encoding="UTF-8" standalone="no"?>
<!-- Created with Inkscape (http://www.inkscape.org/) -->

<svg
   xmlns:dc="http://purl.org/dc/elements/1.1/"
   xmlns:cc="http://creativecommons.org/ns#"
   xmlns:rdf="http://www.w3.org/1999/02/22-rdf-syntax-ns#"
   xmlns:svg="http://www.w3.org/2000/svg"
   xmlns="http://www.w3.org/2000/svg"
   xmlns:xlink="http://www.w3.org/1999/xlink"
   xmlns:sodipodi="http://sodipodi.sourceforge.net/DTD/sodipodi-0.dtd"
   xmlns:inkscape="http://www.inkscape.org/namespaces/inkscape"
   width="744.09448819"
   height="1052.3622047"
   id="svg2"
   inkscape:label="Pozadí"
   version="1.1"
   inkscape:version="0.48.4 r9939"
   sodipodi:docname="Nový dokument 1">
  <defs
     id="defs3">
    <linearGradient
       id="linearGradient3924">
      <stop
         style="stop-color:#000000;stop-opacity:0.41;"
         offset="0"
         id="stop3926" />
      <stop
         style="stop-color:#000000;stop-opacity:0;"
         offset="1"
         id="stop3928" />
    </linearGradient>
    <linearGradient
       id="linearGradient3916">
      <stop
         style="stop-color:#000000;stop-opacity:1;"
         offset="0"
         id="stop3918" />
      <stop
         style="stop-color:#8e8e8e;stop-opacity:1;"
         offset="1"
         id="stop3920" />
    </linearGradient>
    <linearGradient
       id="linearGradient3836">
      <stop
         id="stop3844"
         offset="0"
         style="stop-color:#ffffff;stop-opacity:1;" />
      <stop
         style="stop-color:#b6b6b6;stop-opacity:1;"
         offset="1"
         id="stop3840" />
    </linearGradient>
    <linearGradient
       id="linearGradient3775">
      <stop
         style="stop-color:#7a7a7a;stop-opacity:1;"
         offset="0"
         id="stop3777" />
      <stop
         style="stop-color:#2b2b2b;stop-opacity:1;"
         offset="1"
         id="stop3779" />
    </linearGradient>
    <radialGradient
       inkscape:collect="always"
       xlink:href="#linearGradient3775"
       id="radialGradient3781"
       cx="129"
       cy="246.25"
       fx="129"
       fy="246.25"
       r="24"
       gradientUnits="userSpaceOnUse" />
    <radialGradient
       inkscape:collect="always"
       xlink:href="#linearGradient3836"
       id="radialGradient3842"
       cx="129"
       cy="246.25"
       fx="129"
       fy="246.25"
       r="24"
       gradientUnits="userSpaceOnUse" />
    <linearGradient
       inkscape:collect="always"
       xlink:href="#linearGradient3924"
       id="linearGradient3930"
       x1="103.4738"
       y1="246.25"
       x2="154.5262"
       y2="246.25"
       gradientUnits="userSpaceOnUse" />
    <linearGradient
       inkscape:collect="always"
       xlink:href="#linearGradient3924-9"
       id="linearGradient3930-9"
       x1="103.4738"
       y1="246.25"
       x2="154.5262"
       y2="246.25"
       gradientUnits="userSpaceOnUse" />
    <linearGradient
       id="linearGradient3924-9">
      <stop
         style="stop-color:#000000;stop-opacity:0.79500002;"
         offset="0"
         id="stop3926-7" />
      <stop
         style="stop-color:#7a7a7a;stop-opacity:0.16;"
         offset="1"
         id="stop3928-8" />
    </linearGradient>
    <linearGradient
       y2="246.25"
       x2="154.5262"
       y1="246.25"
       x1="103.4738"
       gradientUnits="userSpaceOnUse"
       id="linearGradient3949"
       xlink:href="#linearGradient3924-9"
       inkscape:collect="always" />
  </defs>
  <sodipodi:namedview
     id="base"
     pagecolor="#ffffff"
     bordercolor="#666666"
     borderopacity="1.0"
     inkscape:pageopacity="0.0"
     inkscape:pageshadow="2"
     inkscape:zoom="5.0105263"
     inkscape:cx="300.99576"
     inkscape:cy="523.66032"
     inkscape:document-units="px"
     inkscape:current-layer="layer1"
     showgrid="false"
     inkscape:window-width="1920"
     inkscape:window-height="1025"
     inkscape:window-x="-2"
     inkscape:window-y="-3"
     inkscape:window-maximized="1" />
  <metadata
     id="metadata6">
    <rdf:RDF>
      <cc:Work
         rdf:about="">
        <dc:format>image/svg+xml</dc:format>
        <dc:type
           rdf:resource="http://purl.org/dc/dcmitype/StillImage" />
        <dc:title></dc:title>
      </cc:Work>
    </rdf:RDF>
  </metadata>
  <g
     inkscape:label="Vrstva 1"
     inkscape:groupmode="layer"
     id="layer1">
    <ellipse
       d="m 153,246.25 c 0,13.25483 -10.74517,24 -24,24 -13.25483,0 -24,-10.74517 -24,-24 0,-13.25483 10.74517,-24 24,-24 13.25483,0 24,10.74517 24,24 z"
       sodipodi:ry="24"
       sodipodi:rx="24"
       sodipodi:cy="246.25"
       sodipodi:cx="129"
       style="fill:url(#radialGradient3781);fill-opacity:1"
       cx="129"
       cy="246.25"
       rx="24"
       ry="24"
       id="ellipse2988"
       transform="matrix(2.0842982,0,0,2.0842982,106.12553,19.103751)"
       inkscape:export-filename="/home/mike/Desktop/black2.png"
       inkscape:export-xdpi="43.180016"
       inkscape:export-ydpi="43.180016" />
    <ellipse
       d="m 153,246.25 c 0,13.25483 -10.74517,24 -24,24 -13.25483,0 -24,-10.74517 -24,-24 0,-13.25483 10.74517,-24 24,-24 13.25483,0 24,10.74517 24,24 z"
       sodipodi:ry="24"
       sodipodi:rx="24"
       sodipodi:cy="246.25"
       sodipodi:cx="129"
       style="fill:none;stroke:#000000;stroke-width:2"
       cx="129"
       cy="246.25"
       rx="24"
       ry="24"
       id="ellipse2990"
       transform="matrix(2.0842982,0,0,2.0842982,106.12553,19.103751)"
       inkscape:export-filename="/home/mike/Desktop/black2.png"
       inkscape:export-xdpi="43.180016"
       inkscape:export-ydpi="43.180016" />
    <ellipse
       d="m 153,246.25 c 0,13.25483 -10.74517,24 -24,24 -13.25483,0 -24,-10.74517 -24,-24 0,-13.25483 10.74517,-24 24,-24 13.25483,0 24,10.74517 24,24 z"
       sodipodi:ry="24"
       sodipodi:rx="24"
       sodipodi:cy="246.25"
       sodipodi:cx="129"
       style="fill:none;stroke:#000000;stroke-width:2"
       cx="129"
       cy="246.25"
       rx="24"
       ry="24"
       id="ellipse2992"
       transform="matrix(2.0842982,0,0,2.0842982,106.12553,19.103751)"
       inkscape:export-filename="/home/mike/Desktop/black2.png"
       inkscape:export-xdpi="43.180016"
       inkscape:export-ydpi="43.180016" />
    <ellipse
       d="m 153,246.25 c 0,13.25483 -10.74517,24 -24,24 -13.25483,0 -24,-10.74517 -24,-24 0,-13.25483 10.74517,-24 24,-24 13.25483,0 24,10.74517 24,24 z"
       sodipodi:ry="24"
       sodipodi:rx="24"
       sodipodi:cy="246.25"
       sodipodi:cx="129"
       style="fill:url(#radialGradient3842);fill-opacity:1"
       cx="129"
       cy="246.25"
       rx="24"
       ry="24"
       id="ellipse3817"
       transform="matrix(2.0842982,0,0,2.0842982,-22.592955,16.404171)"
       inkscape:export-filename="/home/mike/Desktop/white2.png"
       inkscape:export-xdpi="43.180016"
       inkscape:export-ydpi="43.180016" />
    <ellipse
       d="m 153,246.25 c 0,13.25483 -10.74517,24 -24,24 -13.25483,0 -24,-10.74517 -24,-24 0,-13.25483 10.74517,-24 24,-24 13.25483,0 24,10.74517 24,24 z"
       sodipodi:ry="24"
       sodipodi:rx="24"
       sodipodi:cy="246.25"
       sodipodi:cx="129"
       style="fill:none;stroke:#000000;stroke-width:2"
       cx="129"
       cy="246.25"
       rx="24"
       ry="24"
       id="ellipse3819"
       transform="matrix(2.0842982,0,0,2.0842982,-22.592955,16.404171)"
       inkscape:export-filename="/home/mike/Desktop/white2.png"
       inkscape:export-xdpi="43.180016"
       inkscape:export-ydpi="43.180016" />
    <ellipse
       d="m 153,246.25 c 0,13.25483 -10.74517,24 -24,24 -13.25483,0 -24,-10.74517 -24,-24 0,-13.25483 10.74517,-24 24,-24 13.25483,0 24,10.74517 24,24 z"
       sodipodi:ry="24"
       sodipodi:rx="24"
       sodipodi:cy="246.25"
       sodipodi:cx="129"
       style="fill:none;stroke:#000000;stroke-width:2.00019364;stroke-miterlimit:4;stroke-dasharray:none"
       cx="129"
       cy="246.25"
       rx="24"
       ry="24"
       id="ellipse3821"
       transform="matrix(2.0842982,0,0,2.0842982,-22.592955,16.404171)"
       inkscape:export-filename="/home/mike/Desktop/white2.png"
       inkscape:export-xdpi="43.180016"
       inkscape:export-ydpi="43.180016" />
    <ellipse
       d="m 153,246.25 c 0,13.25483 -10.74517,24 -24,24 -13.25483,0 -24,-10.74517 -24,-24 0,-13.25483 10.74517,-24 24,-24 13.25483,0 24,10.74517 24,24 z"
       sodipodi:ry="24"
       sodipodi:rx="24"
       sodipodi:cy="246.25"
       sodipodi:cx="129"
       style="fill:url(#linearGradient3930);fill-opacity:1;stroke:#000000;stroke-width:3.0523994;stroke-miterlimit:4;stroke-opacity:1;stroke-dasharray:none"
       cx="129"
       cy="246.25"
       rx="24"
       ry="24"
       id="ellipse3821-0"
       transform="matrix(0.97534731,0.956105,-0.956105,0.97534731,355.70298,165.74661)"
       inkscape:export-filename="/home/mike/Desktop/white2.png"
       inkscape:export-xdpi="43.180016"
       inkscape:export-ydpi="43.180016" />
    <ellipse
       d="m 153,246.25 c 0,13.25483 -10.74517,24 -24,24 -13.25483,0 -24,-10.74517 -24,-24 0,-13.25483 10.74517,-24 24,-24 13.25483,0 24,10.74517 24,24 z"
       sodipodi:ry="24"
       sodipodi:rx="24"
       sodipodi:cy="246.25"
       sodipodi:cx="129"
       style="fill:url(#linearGradient3949);fill-opacity:1;stroke:#000000;stroke-width:3.0523994;stroke-miterlimit:4;stroke-opacity:1;stroke-dasharray:none"
       cx="129"
       cy="246.25"
       rx="24"
       ry="24"
       id="ellipse3821-0-9"
       transform="matrix(0.87272505,1.0506142,-1.0506142,0.87272505,520.74355,182.21854)"
       inkscape:export-filename="/home/mike/Desktop/black2.png"
       inkscape:export-xdpi="43.180016"
       inkscape:export-ydpi="43.180016" />
  </g>
</svg>
